<svg width="129" height="128" viewBox="0 0 129 128" fill="none" xmlns="http://www.w3.org/2000/svg">
<circle cx="64.3906" cy="64" r="64" fill="url(#paint0_linear)"/>
<path d="M57.1097 82.422C57.0216 82.427 56.9666 82.422 56.9666 82.422H57.1097C57.902 82.377 61.3656 81.5215 51.4662 68.9224C40.4662 54.9225 47.9668 35.9224 67.9666 39.4223C87.9665 42.9223 82.7525 61.922 76.4662 69.9224C70.1799 77.9228 72.3906 82.422 72.3906 82.422H57.1097Z" fill="white"/>
<path d="M60.2025 72C60.2025 72 62.4076 61.8359 62.7752 60.9888C63.1428 60.1417 60.2025 59.718 59.4675 62.2593C58.7325 64.8006 63.5103 64.8004 63.5103 64.8004H67.1855C67.1855 64.8004 69.3906 62.6829 69.3906 60.9888C69.3906 59.2947 66.088 60.1073 66.4504 60.9888C66.8128 61.8703 69.3906 72 69.3906 72" stroke="#E67E22" stroke-width="2"/>
<rect x="56.3906" y="85" width="18" height="9" fill="white"/>
<rect x="59.3906" y="94" width="11" height="3" fill="white"/>
<defs>
<linearGradient id="paint0_linear" x1="13.3906" y1="106" x2="87.3906" y2="53.5" gradientUnits="userSpaceOnUse">
<stop stop-color="#F91D58"/>
<stop offset="1" stop-color="#E14D08"/>
</linearGradient>
</defs>
</svg>
